<?xml version="1.0" encoding="UTF-8"?>
<svg id="Lag_1" data-name="Lag 1" xmlns="http://www.w3.org/2000/svg" viewBox="0 0 2189 1172.9">
  <defs>
    <style>
      .cls-1 {
        fill: #bc4530;
      }
    </style>
  </defs>
  <path class="cls-1" d="M2189,417.1v755.7H0V63.7c3.1,2.2,7.5,3.8,9.1,6.8,3.3,6,5,12.9,7.7,19.2,1.4,3.2,2.9,6.8,5.4,9.1,5.3,4.7,11.5,8.5,17.1,13,4.1,3.2,8.1,5.4,13.6,4.3,2.5-.5,5.4-.3,7.9,.3,11.6,3.1,23.3,3,35.2,2.6,3-.1,6.7,1.1,9.1,3,4.6,3.7,9.6,5.6,15.2,6.9,3.9,.9,8.1,2.5,11.1,5,7.8,6.6,16.9,9.6,26.5,7.6,8.2-1.7,12.3,1.5,17.1,7,10.3,11.7,21.9,21.6,37.7,25.7,7.9,2.1,15.1,6.7,19.8,13.7,3.6,5.4,8.3,7,14.1,6.2,4.6-.6,9.3-1.5,13.4-3.4,6.2-2.8,11.2-2,16.8,1.7,3.7,2.4,8.6,4.3,12.9,4.2,6.5-.2,12.9-2.5,19.4-3.7,1.6-.3,3.8,0,5.1,.8,5.1,3.4,10,7.1,15,10.7,6.5,4.6,13.4,4.5,20.3,1.2,3.3-1.6,6.5-3.3,9.5-5.4,13.6-9.3,25.1-20.8,35.2-33.7,4.5-5.8,10-9.2,17.2-11,11.4-2.9,22.6-6.6,33.8-10.3,10.6-3.5,20.8-7.8,31.5-11.2,28-8.9,56.3-16.9,84.2-26.3,16.2-5.4,30.9-14.1,42.3-27.3,13.2-15.3,23.4-32.3,30-51.4,1.5-4.3,3-9.1,2.6-13.5-.8-9.8,11-16.4,17.9-15.1,1.6,.3,4,2.6,4,3.9-.5,12.4,6.6,20.4,15.6,26.8,14,10,25.2,22.7,34.9,36.7,9.6,14,19.3,28.1,22.8,45.1,1.8,8.7,1.8,17.8,3.2,26.7,2.9,18.5,9.8,35.8,17.1,52.9,5.8,13.7,15.3,22.9,30.2,26.5,13,3.1,23.7,10.2,33.1,19.6,11.3,11.3,22.8,22.4,34.7,33,9.2,8.3,19.7,14.8,32,17.6,17.8,4.1,35.6,8.4,53.5,12.3,5.3,1.2,10.8,1.5,16.3,2.2,13.5,1.7,23.4-3.6,30.9-14.9,7.6-11.4,12.6-12.9,25.4-8.9,8,2.5,16,2.5,24,.1,14.6-4.4,29.3-8.6,44-12.7,4.5-1.2,9.1-1.9,13.7-2.5,12.7-1.6,22.2,3.9,29.8,13.7,4.8,6.1,10.6,7.8,18.6,6,5.4-1.2,11.5-.2,17.1,.7,4.2,.7,6.5,4,7.2,8.5,1,7.2,6.9,10.1,13.7,7.2,10.1-4.4,14.9-14.5,12-25.2-1.2-4.5-.2-7.7,4.1-10.5,5.5-3.5,10.6-7.9,15.7-12.1,4.3-3.6,8.5-7.4,12.7-11.3,4-3.7,8.9-3.9,13.6-2.7,6,1.6,11.3,4.8,14.9,10.2,4.6,6.8,8.4,7.4,14.4,1.5,4.9-4.8,9.1-10.2,13.6-15.3,10.3-11.9,21.5-22.8,34.9-31.1,15.8-9.7,31.9-15.7,51.5-11.2,15.1,3.4,30.8,.2,46.1-2.7,14.5-2.8,28.8-2.6,43.3,2,18.2,5.8,37,9.7,56.2,10.6,16.5,.8,32-2.4,44.5-13.8,9.5-8.7,20.5-11.7,33.1-10.6,8.9,.8,17.5-.9,25.8-4.5,10-4.4,20.1-8.9,30.5-12.3,6.5-2.2,13.5-3.3,20.4-3.6,7-.4,13.3-2,18.3-6.6,5.7-5.2,12.2-7,19.7-6.8,26.9,.7,53.3,4.8,79.3,11.6,2.8,.7,5,1,7.1-1.4,2-2.3,4.7-2,5.2,1.1,1.6,9.2,8,13.6,15.5,17.5,17.7,9.1,36.4,16.8,51,30.9,19.7,18.9,39.2,38,58.5,57.2,6.4,6.4,13.7,10.6,22.5,11.8,5.7,.8,11-.5,14.4-5.8,4.1-6.3,6-7,13.2-5.8,7.3,1.3,14.7,2.4,22.2,3.2,5.2,.5,9.4,2.2,13,6.3,3.9,4.5,8.6,8.3,13,12.4,3.8,3.5,7.8,3.2,11.6,0,1.4-1.2,2.8-2.3,4.2-3.6,8.8-8.7,20.7-8.5,29.2,.8,4.6,5,10.1,8.2,16.8,8.9,16.1,1.7,29,9.2,39.6,21,3.3,3.7,6.5,7.6,9.5,11.5,6.7,8.8,14.6,14.6,26.1,17.5,11,2.8,20.8,9.9,31.2,15,3.8,1.8,4.9,4.3,4.9,8.6,0,18,0,35.9,0,53.9h.2Z"/>
</svg>