<?xml version="1.0" encoding="UTF-8"?>
<svg id="Lag_1" data-name="Lag 1" xmlns="http://www.w3.org/2000/svg" viewBox="0 0 2189 5981.03">
  <defs>
    <style>
      .cls-1 {
        fill: #bc4530;
      }
    </style>
  </defs>
  <path class="cls-1" d="M2188.85,417.11c.02-17.96,.04-35.93,.08-53.89,0-4.24-1.18-6.74-4.94-8.56-10.43-5.05-20.27-12.23-31.25-14.99-11.48-2.89-19.37-8.69-26.07-17.53-3.01-3.98-6.19-7.84-9.53-11.55-10.62-11.8-23.54-19.29-39.61-21.04-6.69-.72-12.22-3.95-16.81-8.94-8.48-9.22-20.35-9.45-29.18-.76-1.3,1.28-2.75,2.42-4.15,3.6-3.85,3.24-7.81,3.54-11.64,.08-4.44-4.01-9.1-7.87-13.03-12.35-3.59-4.1-7.76-5.79-12.98-6.34-7.42-.78-14.81-1.92-22.16-3.2-7.17-1.25-9.08-.56-13.17,5.78-3.43,5.31-8.67,6.61-14.39,5.81-8.84-1.24-16.12-5.46-22.52-11.82-19.34-19.24-38.88-38.3-58.52-57.23-14.64-14.11-33.3-21.79-51.04-30.88-7.52-3.85-13.89-8.33-15.48-17.48-.54-3.07-3.21-3.39-5.22-1.13-2.19,2.46-4.33,2.17-7.15,1.43-26-6.79-52.41-10.86-79.31-11.59-7.46-.2-13.99,1.57-19.69,6.79-5.06,4.63-11.32,6.29-18.33,6.64-6.86,.35-13.91,1.45-20.4,3.62-10.39,3.47-20.48,7.89-30.51,12.32-8.28,3.65-16.81,5.3-25.75,4.51-12.58-1.12-23.55,1.91-33.09,10.6-12.58,11.46-28.06,14.63-44.55,13.86-19.22-.9-38-4.87-56.21-10.62-14.5-4.58-28.73-4.79-43.27-1.95-15.28,2.98-30.97,6.18-46.07,2.74-19.55-4.45-35.71,1.57-51.49,11.23-13.48,8.25-24.66,19.2-34.95,31.09-4.46,5.16-8.7,10.55-13.56,15.31-5.99,5.88-9.8,5.32-14.37-1.53-3.63-5.44-8.86-8.6-14.9-10.21-4.75-1.27-9.58-1.03-13.6,2.66-4.17,3.82-8.34,7.65-12.69,11.26-5.1,4.22-10.14,8.59-15.69,12.14-4.31,2.76-5.34,5.97-4.11,10.5,2.91,10.72-1.92,20.85-12.02,25.25-6.79,2.96-12.63,.05-13.66-7.17-.65-4.56-3.01-7.82-7.18-8.53-5.63-.95-11.74-1.94-17.14-.7-7.92,1.82-13.81,.11-18.57-5.99-7.59-9.73-17.05-15.27-29.76-13.68-4.61,.58-9.26,1.24-13.73,2.47-14.73,4.07-29.4,8.34-44.04,12.71-8.08,2.41-16,2.39-24.04-.1-12.78-3.95-17.74-2.47-25.35,8.93-7.49,11.22-17.34,16.61-30.86,14.87-5.44-.7-10.96-1.04-16.3-2.21-17.85-3.94-35.63-8.21-53.45-12.3-12.37-2.84-22.81-9.37-32.03-17.64-11.89-10.66-23.38-21.77-34.69-33.05-9.42-9.39-20.12-16.5-33.08-19.57-14.91-3.54-24.41-12.73-30.23-26.46-7.28-17.14-14.21-34.4-17.08-52.92-1.37-8.85-1.34-17.95-3.17-26.68-3.55-16.95-13.24-31.08-22.83-45.07-9.64-14.07-20.84-26.71-34.89-36.75-9.05-6.48-16.1-14.47-15.63-26.82,.05-1.3-2.4-3.62-3.98-3.91-6.91-1.28-18.72,5.32-17.87,15.1,.38,4.41-1.12,9.21-2.62,13.53-6.6,19.07-16.85,36.09-30.03,51.35-11.42,13.23-26.11,21.92-42.31,27.35-27.87,9.35-56.17,17.39-84.2,26.26-10.61,3.35-20.9,7.67-31.46,11.19-11.17,3.72-22.38,7.41-33.78,10.34-7.17,1.84-12.7,5.25-17.19,11.03-10.06,12.95-21.59,24.45-35.19,33.72-3.01,2.05-6.26,3.81-9.55,5.38-6.95,3.32-13.84,3.35-20.34-1.21-5.03-3.53-9.89-7.3-15.03-10.66-1.33-.87-3.5-1.07-5.14-.78-6.5,1.15-12.91,3.45-19.41,3.66-4.29,.14-9.2-1.73-12.88-4.15-5.6-3.69-10.58-4.48-16.78-1.71-4.16,1.86-8.88,2.74-13.44,3.36-5.76,.78-10.5-.81-14.1-6.2-4.67-7-11.86-11.6-19.79-13.66-15.84-4.1-27.43-14.02-37.74-25.75-4.77-5.43-8.95-8.69-17.11-6.95-9.55,2.03-18.62-1.01-26.45-7.58-3.02-2.53-7.22-4.12-11.14-5.02-5.65-1.3-10.62-3.29-15.22-6.93-2.37-1.87-6.04-3.1-9.07-2.98-11.86,.44-23.6,.5-35.2-2.59-2.51-.67-5.4-.84-7.93-.32-5.48,1.13-9.54-1.05-13.61-4.27-5.61-4.45-11.76-8.24-17.09-12.97-2.51-2.22-3.99-5.83-5.36-9.06-2.69-6.36-4.37-13.22-7.68-19.2-1.67-3.01-6-4.55-9.12-6.76,0,117.81,0,235.62,0,353.43h0V5981.03H2189V417.11h-.15Z"/>
</svg>