<?xml version="1.0" encoding="UTF-8"?>
<svg id="Lag_1" data-name="Lag 1" xmlns="http://www.w3.org/2000/svg" viewBox="0 0 2189 584.83">
  <defs>
    <style>
      .cls-1 {
        fill: #bc4530;
      }
    </style>
  </defs>
  <path class="cls-1" d="M2189,584.83H0C0,411.11,0,237.4,0,63.68c3.13,2.21,7.45,3.75,9.12,6.76,3.31,5.98,4.99,12.85,7.68,19.2,1.37,3.23,2.85,6.84,5.36,9.06,5.34,4.73,11.49,8.53,17.09,12.97,4.06,3.22,8.12,5.4,13.61,4.27,2.53-.52,5.42-.35,7.93,.32,11.6,3.09,23.34,3.03,35.2,2.59,3.02-.11,6.7,1.11,9.07,2.98,4.61,3.64,9.58,5.64,15.22,6.93,3.92,.9,8.12,2.48,11.14,5.02,7.84,6.57,16.91,9.62,26.45,7.58,8.16-1.74,12.34,1.52,17.11,6.95,10.31,11.73,21.9,21.64,37.74,25.75,7.93,2.05,15.12,6.66,19.79,13.66,3.6,5.39,8.35,6.98,14.1,6.2,4.56-.62,9.28-1.5,13.44-3.36,6.19-2.77,11.18-1.99,16.78,1.71,3.67,2.42,8.59,4.3,12.88,4.15,6.5-.22,12.91-2.52,19.41-3.66,1.64-.29,3.8-.09,5.14,.78,5.14,3.36,10,7.14,15.03,10.66,6.5,4.56,13.39,4.53,20.34,1.21,3.29-1.57,6.54-3.32,9.55-5.38,13.6-9.27,25.13-20.78,35.19-33.72,4.49-5.78,10.02-9.18,17.19-11.03,11.39-2.93,22.61-6.62,33.78-10.34,10.56-3.52,20.86-7.83,31.46-11.19,28.03-8.87,56.34-16.91,84.2-26.26,16.2-5.44,30.89-14.12,42.31-27.35,13.17-15.27,23.43-32.28,30.03-51.35,1.5-4.33,3-9.12,2.62-13.53-.85-9.78,10.96-16.38,17.87-15.1,1.58,.29,4.03,2.61,3.98,3.91-.48,12.35,6.57,20.34,15.63,26.82,14.04,10.04,25.24,22.68,34.89,36.75,9.59,14,19.27,28.13,22.83,45.07,1.83,8.73,1.8,17.84,3.17,26.68,2.87,18.52,9.8,35.78,17.08,52.92,5.83,13.73,15.32,22.93,30.23,26.46,12.95,3.07,23.65,10.18,33.08,19.57,11.31,11.27,22.8,22.39,34.69,33.05,9.22,8.26,19.66,14.8,32.03,17.64,17.82,4.09,35.6,8.36,53.45,12.3,5.33,1.18,10.86,1.51,16.3,2.21,13.52,1.74,23.37-3.65,30.86-14.87,7.61-11.4,12.57-12.88,25.35-8.93,8.04,2.49,15.97,2.51,24.04,.1,14.64-4.37,29.31-8.64,44.04-12.71,4.46-1.24,9.12-1.89,13.73-2.47,12.71-1.59,22.17,3.95,29.76,13.68,4.76,6.1,10.64,7.81,18.57,5.99,5.39-1.24,11.51-.25,17.14,.7,4.17,.7,6.53,3.97,7.18,8.53,1.04,7.23,6.88,10.13,13.66,7.17,10.11-4.4,14.94-14.54,12.02-25.25-1.23-4.53-.19-7.74,4.11-10.5,5.55-3.55,10.59-7.92,15.69-12.14,4.36-3.6,8.53-7.44,12.69-11.26,4.02-3.69,8.86-3.93,13.6-2.66,6.04,1.61,11.27,4.78,14.9,10.21,4.57,6.84,8.38,7.4,14.37,1.53,4.86-4.76,9.09-10.16,13.56-15.31,10.29-11.89,21.47-22.84,34.95-31.09,15.79-9.66,31.94-15.68,51.49-11.23,15.1,3.43,30.79,.24,46.07-2.74,14.53-2.84,28.76-2.63,43.27,1.95,18.21,5.75,36.99,9.72,56.21,10.62,16.49,.77,31.97-2.39,44.55-13.86,9.54-8.69,20.51-11.72,33.09-10.6,8.94,.8,17.47-.85,25.75-4.51,10.04-4.43,20.13-8.84,30.51-12.32,6.49-2.17,13.54-3.28,20.4-3.62,7-.36,13.27-2.01,18.33-6.64,5.7-5.22,12.23-6.99,19.69-6.79,26.9,.73,53.31,4.79,79.31,11.59,2.82,.74,4.96,1.03,7.15-1.43,2.01-2.26,4.69-1.95,5.22,1.13,1.6,9.14,7.96,13.63,15.48,17.48,17.74,9.08,36.4,16.77,51.04,30.88,19.65,18.93,39.18,37.99,58.52,57.23,6.4,6.36,13.68,10.58,22.52,11.82,5.72,.81,10.97-.49,14.39-5.81,4.09-6.34,6.01-7.03,13.17-5.78,7.35,1.28,14.74,2.42,22.16,3.2,5.22,.55,9.39,2.24,12.98,6.34,3.93,4.48,8.59,8.33,13.03,12.35,3.83,3.47,7.79,3.16,11.64-.08,1.4-1.18,2.85-2.31,4.15-3.6,8.84-8.69,20.71-8.46,29.18,.76,4.59,4.99,10.12,8.21,16.81,8.94,16.06,1.74,28.99,9.23,39.61,21.04,3.34,3.71,6.52,7.58,9.53,11.55,6.7,8.85,14.59,14.64,26.07,17.53,10.98,2.77,20.82,9.94,31.25,14.99,3.77,1.83,4.95,4.32,4.94,8.56-.15,72.21-.11,144.43-.1,216.64,0,1.66,.11,3.31,.17,4.97Z"/>
</svg>