<?xml version="1.0" encoding="UTF-8"?>
<svg id="Lag_1" data-name="Lag 1" xmlns="http://www.w3.org/2000/svg" viewBox="0 0 2189 1172.86">
  <defs>
    <style>
      .cls-1 {
        fill: #bc4530;
      }
    </style>
  </defs>
  <path class="cls-1" d="M2189,417.12v755.74H0V63.68c3.13,2.21,7.45,3.75,9.12,6.76,3.32,5.98,4.99,12.85,7.69,19.2,1.36,3.23,2.85,6.84,5.36,9.06,5.33,4.73,11.48,8.53,17.09,12.98,4.06,3.22,8.12,5.39,13.6,4.27,2.53-.52,5.42-.35,7.93,.32,11.6,3.08,23.34,3.03,35.2,2.58,3.02-.11,6.7,1.11,9.07,2.98,4.61,3.65,9.57,5.64,15.22,6.94,3.92,.9,8.12,2.48,11.14,5.01,7.84,6.57,16.91,9.62,26.46,7.59,8.15-1.74,12.33,1.52,17.11,6.95,10.31,11.73,21.89,21.64,37.73,25.74,7.94,2.06,15.12,6.66,19.8,13.66,3.6,5.39,8.34,6.98,14.1,6.2,4.56-.62,9.28-1.49,13.44-3.35,6.2-2.78,11.18-1.99,16.78,1.7,3.67,2.43,8.59,4.3,12.88,4.16,6.5-.22,12.91-2.52,19.41-3.67,1.64-.29,3.8-.09,5.14,.78,5.13,3.36,10,7.14,15.03,10.67,6.5,4.56,13.39,4.52,20.33,1.21,3.3-1.57,6.55-3.33,9.55-5.38,13.61-9.27,25.13-20.78,35.19-33.72,4.49-5.78,10.02-9.19,17.19-11.03,11.39-2.93,22.6-6.62,33.78-10.34,10.56-3.52,20.85-7.83,31.46-11.19,28.03-8.87,56.34-16.91,84.2-26.26,16.2-5.43,30.9-14.12,42.31-27.35,13.17-15.27,23.43-32.28,30.03-51.35,1.49-4.33,3-9.12,2.61-13.54-.85-9.78,10.97-16.37,17.88-15.1,1.58,.3,4.03,2.61,3.98,3.91-.48,12.36,6.57,20.35,15.62,26.82,14.04,10.05,25.25,22.68,34.89,36.75,9.59,14,19.27,28.13,22.82,45.08,1.83,8.73,1.8,17.83,3.17,26.68,2.88,18.52,9.81,35.78,17.09,52.93,5.83,13.73,15.32,22.92,30.23,26.46,12.95,3.07,23.65,10.18,33.08,19.57,11.31,11.28,22.8,22.39,34.69,33.05,9.22,8.26,19.66,14.8,32.03,17.64,17.82,4.09,35.6,8.36,53.46,12.3,5.33,1.17,10.85,1.51,16.29,2.21,13.52,1.74,23.37-3.65,30.86-14.87,7.61-11.4,12.57-12.88,25.35-8.93,8.04,2.49,15.96,2.51,24.04,.1,14.64-4.38,29.32-8.64,44.04-12.72,4.47-1.23,9.12-1.89,13.73-2.47,12.71-1.59,22.17,3.95,29.76,13.68,4.76,6.1,10.65,7.82,18.57,5.99,5.39-1.24,11.51-.24,17.14,.71,4.16,.7,6.53,3.97,7.18,8.52,1.03,7.23,6.88,10.13,13.66,7.17,10.11-4.4,14.94-14.53,12.03-25.25-1.24-4.53-.2-7.74,4.11-10.5,5.55-3.55,10.59-7.92,15.69-12.14,4.35-3.6,8.52-7.44,12.69-11.26,4.02-3.68,8.86-3.93,13.6-2.66,6.05,1.61,11.27,4.78,14.9,10.22,4.58,6.84,8.38,7.4,14.37,1.52,4.86-4.76,9.1-10.15,13.56-15.31,10.29-11.89,21.47-22.84,34.95-31.09,15.79-9.66,31.94-15.67,51.49-11.23,15.1,3.44,30.79,.24,46.07-2.74,14.53-2.84,28.76-2.63,43.27,1.95,18.21,5.75,36.98,9.72,56.2,10.62,16.49,.77,31.97-2.39,44.55-13.85,9.54-8.69,20.51-11.72,33.09-10.6,8.94,.8,17.47-.85,25.76-4.5,10.03-4.43,20.12-8.85,30.51-12.32,6.49-2.17,13.54-3.28,20.4-3.63,7.01-.35,13.27-2.01,18.33-6.64,5.7-5.22,12.23-6.99,19.69-6.79,26.9,.73,53.31,4.8,79.31,11.59,2.82,.74,4.96,1.03,7.15-1.43,2.01-2.26,4.69-1.95,5.22,1.12,1.6,9.15,7.97,13.63,15.49,17.48,17.74,9.08,36.4,16.77,51.04,30.88,19.65,18.93,39.18,37.99,58.52,57.23,6.4,6.36,13.68,10.58,22.52,11.82,5.72,.81,10.97-.49,14.4-5.8,4.09-6.35,6-7.03,13.17-5.78,7.35,1.27,14.74,2.42,22.16,3.2,5.22,.55,9.39,2.24,12.98,6.33,3.92,4.48,8.58,8.33,13.02,12.35,3.84,3.47,7.79,3.16,11.64-.08,1.4-1.18,2.85-2.31,4.15-3.59,8.84-8.7,20.71-8.46,29.19,.75,4.58,4.99,10.12,8.22,16.81,8.94,16.06,1.74,28.98,9.23,39.6,21.04,3.34,3.71,6.52,7.57,9.53,11.55,6.7,8.84,14.59,14.64,26.07,17.53,10.98,2.77,20.82,9.94,31.25,15,3.77,1.82,4.95,4.32,4.94,8.56-.03,17.96-.06,35.92-.08,53.89h.15Z"/>
</svg>