<?xml version="1.0" encoding="UTF-8"?>
<svg id="Lag_1" data-name="Lag 1" xmlns="http://www.w3.org/2000/svg" viewBox="0 0 111.7 84.9">
  <defs>
    <style>
      .cls-1 {
        fill: #ec9a29;
      }
    </style>
  </defs>
  <path class="cls-1" d="M6.6,67.9c-.4,0-.7,0-1.2-.2l-3.2-6h0l-1.4,5.9c1.9,.6,3.9,.9,5.8,.9,3.8,0,6.5-2.3,6.5-5.5s-1.1-3.5-3-4.6l-3-1.8c-1.7-1-2.3-1.9-2.3-2.9s1-2.1,2.2-2.1,.7,0,1.1,.1l3,5.4h0l1.4-5.1c-1.8-.8-3.4-1-5.2-1-3.7,0-5.8,2.2-5.8,5.1s1.3,3.9,3.4,5l2.6,1.4c1.3,.7,1.9,1.7,1.9,2.8s-1.2,2.5-2.8,2.5Z"/>
  <path class="cls-1" d="M14,65.9c0,1.4,1,2.3,2.5,2.3s2.5-.6,3.6-1.5v1.3h5.7v-.4h-1.1v-6.4c0-3.3-1.5-5-4.4-5s-4,.9-5.5,2.7h.1c.8-.5,1.5-.8,2.5-.8,1.7,0,2.8,1.3,2.8,3.8-3.8,.4-6.1,1.8-6.1,3.9Zm6.1-3.6v4.1c-.2,0-.4,0-.5,0-.9,0-1.4-.6-1.4-1.7s.5-2.1,1.9-2.5Z"/>
  <path class="cls-1" d="M39.7,59.8c0-2.3-1-3.6-3-3.6s-2.9,.9-4.4,2.2v-2.3l-5.9,2.1,1.3,1.1v8.4h-1.1v.4h6.7v-.4h-.9v-8.9c.5-.2,.9-.3,1.4-.3,.9,0,1.4,.6,1.4,2.4v6.9h-.9v.4h6.7v-.4h-1.1v-7.9Z"/>
  <path class="cls-1" d="M53.1,69.6c0-2-1.4-2.8-4.1-2.8h-2.6c-2,0-2.7-1-2.5-2.3,.9,.6,2,.9,3.3,.9,3.2,0,5.1-1.9,5.1-4.5s-.6-2.8-1.7-3.6c1,.2,2.5,.9,3.6,1.6h0v-3.8h0c-1.4,.7-2.6,1.3-3.9,2-.8-.5-1.8-.8-3.1-.8-3.3,0-5.3,2-5.3,4.5s.6,2.7,1.7,3.5c-1.4,1.4-1.9,2.5-1.9,3.7s.2,1.5,.7,2c-1,.4-1.5,1-1.5,1.7,0,1.4,1.7,2.1,5,2.1s7.1-1.7,7.1-4.3Zm-7.6-12.6c.7,0,1.5,.8,2.9,3.2,1,1.7,1.4,2.9,1.4,3.6s-.3,1-.9,1-1.6-.7-2.9-3.2c-.9-1.7-1.4-2.8-1.4-3.6s.4-1,.9-1Zm-2.8,13.3c.6,.5,1.6,.8,2.9,.8h2.5c1.8,0,2.5,.3,2.5,.8,0,.8-1.4,1.5-3.2,1.5s-4.2-1-4.7-3.1Z"/>
  <path class="cls-1" d="M64,58.6c0,1-.6,1.6-1.7,2.4l-1.7,1.3v-11.5l-5.9,2.1,1.3,1.1v13.6h-1.1v.4h6.4v-.4h-.7v-5l3.4,5.3h5.7v-.4h-.9l-5-7.3,1.4-.6c1.5-.7,2.6-1.3,2.6-2.2s0-.4-.2-.6h-4.6c.7,.5,1,1.1,1,1.7Z"/>
  <path class="cls-1" d="M75.7,59.1v-2.9l-5.9,2,1.3,1.1v8.3h-1.1v.4h7.5v-.4h-1.7v-8.3c.8-.1,1.9,.5,4.3,3.1h0v-6.1c-.1,0-.3,0-.4,0-1.1,0-2.5,1.1-3.9,2.8Z"/>
  <path class="cls-1" d="M80.4,65.9c0,1.4,1,2.3,2.5,2.3s2.5-.6,3.6-1.5v1.3h5.7v-.4h-1.1v-6.4c0-3.3-1.5-5-4.4-5s-4,.9-5.6,2.7h.1c.8-.5,1.5-.8,2.5-.8,1.7,0,2.8,1.3,2.8,3.8-3.8,.4-6.1,1.8-6.1,3.9Zm6.1-3.6v4.1c-.2,0-.4,0-.5,0-.9,0-1.4-.6-1.4-1.7s.5-2.1,1.9-2.5Z"/>
  <path class="cls-1" d="M92.9,56.8v.4h1.4v10.5h-1.1v.4h7.7v-.4h-1.9v-10.5h4.6v6.5c0,3,1.1,4.6,3.8,4.6s3.6-1,4.5-2.3h0c-.5,.2-.8,.2-1.4,.2-1.7,0-2.3-1-2.3-3.6v-5.3h3.2v-.4h-3.2v-4.7l-6.2,4.9v-.3h-3v-3.2c0-1.5,0-2.2,.4-2.3,.3-.1,1,1.1,1.7,2l1.9,2.7h0l.6-4.5c-1-.4-2.3-.7-3.4-.7-3.1,0-5.5,1.7-5.7,6h-1.4Z"/>
  <path class="cls-1" d="M0,82.2v.2H6.2v-3h0c-.7,1.9-1.8,2.8-3,2.8h0v-6.4l.9-.5H0l.9,.5v6.4H0Z"/>
  <polygon class="cls-1" points="9.8 77.5 10.6 78 9.6 80.6 8.5 78 9.2 77.5 5.8 77.5 6.4 78 8.7 82.3 5.9 83.6 7.8 84.9 8.9 82.3 11 78 11.7 77.5 9.8 77.5"/>
  <path class="cls-1" d="M16.8,75l-2.5,.9,.6,.5v1.4c-.3-.2-.7-.4-1.2-.4-1.3,0-2.3,1.1-2.3,2.8s.7,2.3,1.7,2.3,1.2-.3,1.7-.9v.8h2.4v-.2h-.5v-7.2Zm-2,6.4c-.1,0-.3,0-.4,0-.7,0-.9-.7-.9-2s.4-1.8,.9-1.8,.3,0,.5,.1v3.6Z"/>
  <path class="cls-1" d="M21.9,81.5c-.7,0-1.4-.4-1.9-.9,1.2-.4,1.8-1.2,1.8-2s-.6-1.3-1.6-1.3c-1.6,0-2.5,1.2-2.5,2.6s1.1,2.5,2.5,2.5,1.6-.4,2-1h0c0,0-.2,0-.3,0Zm-3-3.2c0-.4,.1-.6,.4-.6,.4,0,1,.7,1,1.6s-.1,.9-.4,1.2c-.6-.6-1-1.4-1-2.2Z"/>
  <path class="cls-1" d="M28.1,78.8c0-1-.4-1.5-1.3-1.5s-1.2,.4-1.9,.9v-1l-2.5,.9,.6,.5v3.6h-.5v.2h2.8v-.2h-.4v-3.8c.2,0,.4-.1,.6-.1,.4,0,.6,.3,.6,1v2.9h-.4v.2h2.8v-.2h-.5v-3.4Z"/>
  <path class="cls-1" d="M35.6,79.4c0-1.4-.7-2.1-1.9-2.1s-1.7,.4-2.4,1.1h0c.3-.2,.6-.3,1.1-.3,.7,0,1.2,.5,1.2,1.6-1.6,.2-2.6,.8-2.6,1.7s.4,1,1.1,1,1.1-.3,1.5-.7v.6h2.4v-.2h-.5v-2.7Zm-2,2.2c0,0-.2,0-.2,0-.4,0-.6-.2-.6-.7s.2-.9,.8-1.1v1.7Z"/>
  <path class="cls-1" d="M36.9,77.5h-.6v.2h.6v4.5h-.5v.2h3.3v-.2h-.8v-4.5h1.3v-.2h-1.3v-1.4c0-.6,0-1,.2-1s.4,.5,.7,.9l.8,1.2h0l.3-1.9c-.4-.2-1-.3-1.4-.3-1.3,0-2.3,.7-2.4,2.5Z"/>
  <path class="cls-1" d="M47.1,79.8v2.5c-1.7-1.3-3-3.8-3-5.5s.4-1.3,.9-1.3c.8,0,1.8,1,3,3h0l.8-2.9c-.7-.4-1.5-.6-2.6-.6-2.3,0-3.7,1.6-3.7,3.6s1.5,3.8,4,3.8,2-.3,2.7-.9v-2.5h-2.9l.9,.7Z"/>
  <path class="cls-1" d="M55.3,77.2l-2.5,.9,.6,.5v2.8c-.2,0-.3,0-.5,0-.5,0-.6-.3-.6-1.1v-3.1l-2.5,.9,.6,.5v2.1c0,1.2,.4,1.7,1.3,1.7s1.1-.4,1.8-.9v.8h2.4v-.2h-.5v-4.9Z"/>
  <polygon class="cls-1" points="58.6 75 56 75.9 56.6 76.3 56.6 82.2 56.1 82.2 56.1 82.3 59.1 82.3 59.1 82.2 58.6 82.2 58.6 75"/>
  <path class="cls-1" d="M64.9,75l-2.5,.9,.6,.5v1.4c-.3-.2-.7-.4-1.2-.4-1.3,0-2.3,1.1-2.3,2.8s.7,2.3,1.7,2.3,1.2-.3,1.7-.9v.8h2.4v-.2h-.5v-7.2Zm-2,6.4c-.1,0-.3,0-.4,0-.7,0-.9-.7-.9-2s.4-1.8,.9-1.8,.3,0,.5,.1v3.6Z"/>
  <path class="cls-1" d="M69.8,77.3c-.6,0-1.2,.3-1.7,.9v-3.2l-2.5,.9,.6,.5v5.7c.7,.2,1.7,.4,2.4,.4,2,0,3-1,3-2.8s-.8-2.3-1.7-2.3Zm-1.2,4.9c-.2,0-.3,0-.5-.1v-3.7c.1,0,.3,0,.4,0,.7,0,.9,.7,.9,2s-.4,2-.9,2Z"/>
  <path class="cls-1" d="M74.9,77.3c-1.6,0-2.7,1.1-2.7,2.5s1.3,2.6,2.7,2.6,2.8-1.1,2.8-2.6-1.2-2.5-2.8-2.5Zm1.1,4.7c-.8,0-2.5-2.9-2.5-3.9s.1-.5,.4-.5c.9,0,2.5,3.1,2.5,3.9s-.1,.5-.4,.5Z"/>
  <path class="cls-1" d="M80.7,78.5v-1.2l-2.5,.8,.6,.5v3.6h-.5v.2h3.2v-.2h-.7v-3.5c.3,0,.8,.2,1.8,1.3h0v-2.6c0,0-.1,0-.2,0-.5,0-1.1,.5-1.6,1.2Z"/>
  <path class="cls-1" d="M86.6,77.7c-.3-.2-.8-.3-1.3-.3-1.4,0-2.2,.9-2.2,1.9s.3,1.1,.7,1.5c-.6,.6-.8,1.1-.8,1.6s0,.6,.3,.9c-.4,.2-.6,.4-.6,.7,0,.6,.7,.9,2.1,.9s3-.7,3-1.8-.6-1.2-1.8-1.2h-1.1c-.9,0-1.2-.4-1.1-1,.4,.3,.9,.4,1.4,.4,1.4,0,2.2-.8,2.2-1.9s-.2-1.2-.7-1.5c.4,0,1.1,.4,1.5,.7h0v-1.6h0c-.6,.3-1.1,.6-1.7,.9Zm-2,5.9h1.1c.8,0,1.1,.1,1.1,.3,0,.4-.6,.6-1.4,.6s-1.8-.4-2-1.3c.3,.2,.7,.4,1.3,.4Zm1.4-2.7c-.3,0-.7-.3-1.2-1.4-.4-.7-.6-1.2-.6-1.5s.2-.4,.4-.4c.3,0,.6,.3,1.2,1.4,.4,.7,.6,1.2,.6,1.5s-.1,.4-.4,.4Z"/>
  <path class="cls-1" d="M91.6,79.3l-.7-.4c-.6-.3-.7-.5-.7-.9s.2-.5,.6-.5,.1,0,.2,0l1.1,1.6h0l.4-1.5c-.5-.2-1-.3-1.6-.3-1.3,0-2.1,.6-2.1,1.6s.4,1.2,1.2,1.6l.6,.3c.4,.2,.6,.4,.6,.7s-.3,.6-.7,.6-.2,0-.3,0l-1.2-1.6h0l-.3,1.6c.7,.2,1.3,.3,1.8,.3,1.2,0,2.2-.6,2.2-1.6s-.4-1.1-1-1.5Z"/>
  <path class="cls-1" d="M98.4,77.2l-2.5,.9,.6,.5v2.8c-.2,0-.3,0-.5,0-.5,0-.6-.3-.6-1.1v-3.1l-2.5,.9,.6,.5v2.1c0,1.2,.4,1.7,1.3,1.7s1.1-.4,1.8-.9v.8h2.4v-.2h-.5v-4.9Z"/>
  <path class="cls-1" d="M104.8,78.8c0-1-.4-1.5-1.3-1.5s-1.2,.4-1.9,.9v-1l-2.5,.9,.6,.5v3.6h-.5v.2h2.8v-.2h-.4v-3.8c.2,0,.4-.1,.6-.1,.4,0,.6,.3,.6,1v2.9h-.4v.2h2.8v-.2h-.5v-3.4Z"/>
  <path class="cls-1" d="M111.1,75l-2.5,.9,.6,.5v1.4c-.3-.2-.7-.4-1.2-.4-1.3,0-2.3,1.1-2.3,2.8s.7,2.3,1.7,2.3,1.2-.3,1.7-.9v.8h2.4v-.2h-.5v-7.2Zm-2,6.4c-.1,0-.3,0-.4,0-.7,0-.9-.7-.9-2s.4-1.8,.9-1.8,.3,0,.5,.1v3.6Z"/>
  <path class="cls-1" d="M56.8,72c-.7,0-1.5,0-2.2,0h0c-.5,0-.5,.7,0,.7h54.4c.7,0,1.5,0,2.2,0h0c.5,0,.5-.7,0-.7H56.8Z"/>
  <path class="cls-1" d="M.9,72.7H34.1c1.5,0,3.1,0,4.6,0h0c.5,0,.5-.7,0-.7H5.6c-1.5,0-3.1,0-4.6,0h0c-.5,0-.5,.7,0,.7Z"/>
  <path class="cls-1" d="M72.4,34.7h0c1.5-3.4,2.6-6.5,3.2-8.8,1.6-5.5,1.6-8.5,1.6-9.9,0-3.6-.8-5-1-5.4-.2-.4-1.7-3-4.2-3-.1,0-2.3,0-3.7,2.4-.2,.4-1.1,1.8-1.1,5.8,0,1.2,0,4.6,1.8,10.3,.7,2.2,1.7,5.3,3.4,8.6Z"/>
  <path class="cls-1" d="M73.7,5.9c1.3-.7,1.9-2.1,1.6-3.5-.4-1.5-1.9-2.5-3.3-2.4-1.5,.1-2.3,1.4-2.4,1.6-.6,1-.6,2.5,.2,3.5,.9,1.2,2.6,1.5,3.9,.8Z"/>
  <path class="cls-1" d="M55.7,43.1c2.2-2.6,3.7-4.8,4.7-6.6,2.3-4.1,2.4-6.3,2.3-7.4,0-2.7-1.1-3.7-1.4-4-.3-.3-2.4-2.3-6.1-2.2-.2,0-3.3,0-5.4,1.8-.3,.3-1.6,1.4-1.6,4.3,0,.9,0,3.4,2.6,7.7,1,1.7,2.5,3.9,4.9,6.4Z"/>
  <path class="cls-1" d="M57,21.4c1.3-.7,1.9-2.1,1.6-3.5-.4-1.5-1.9-2.5-3.3-2.4-1.5,.1-2.3,1.4-2.4,1.6-.6,1-.6,2.5,.2,3.5,.9,1.2,2.6,1.5,3.9,.8Z"/>
  <path class="cls-1" d="M38.4,35.4c1.9-3,3.1-5.7,3.9-7.7,1.9-4.8,2-7.5,2-8.7,0-3.1-.9-4.4-1.2-4.7-.2-.3-2-2.7-5.1-2.6-.2,0-2.8,0-4.5,2.1-.3,.3-1.3,1.6-1.4,5.1,0,1.1,0,4,2.2,9.1,.8,2,2.1,4.6,4.1,7.6Z"/>
  <path class="cls-1" d="M39.7,9c1.3-.7,1.9-2.1,1.6-3.5-.4-1.5-1.9-2.5-3.3-2.4-1.5,.1-2.3,1.4-2.4,1.6-.6,1-.6,2.5,.2,3.5,.9,1.2,2.6,1.5,3.9,.8Z"/>
  <path class="cls-1" d="M88.6,43h0c2-3.3,3.4-6.4,4.2-8.6,2.1-5.4,2.1-8.3,2.1-9.7,0-3.5-1-4.9-1.3-5.3-.3-.4-2.2-3-5.5-2.9-.2,0-3,0-4.9,2.3-.3,.4-1.4,1.8-1.5,5.7,0,1.2,0,4.5,2.3,10.1,.9,2.2,2.3,5.1,4.4,8.4Z"/>
  <path class="cls-1" d="M89.9,14.4c1.3-.7,1.9-2.1,1.6-3.5-.4-1.5-1.9-2.5-3.3-2.4-1.5,.1-2.3,1.4-2.4,1.6-.6,1-.6,2.5,.2,3.5,.9,1.2,2.6,1.5,3.9,.8Z"/>
  <path class="cls-1" d="M21.9,43h0c1.6-3.3,2.6-6.3,3.3-8.5,1.6-5.3,1.7-8.2,1.7-9.5,0-3.4-.8-4.8-1-5.2-.2-.4-1.6-2.9-4.2-2.9-.1,0-2.4,0-3.9,2.2-.2,.4-1.1,1.8-1.2,5.6,0,1.2,0,4.4,1.8,9.9,.7,2.2,1.8,5.1,3.5,8.3Z"/>
  <path class="cls-1" d="M23.2,14.4c1.3-.7,1.9-2.1,1.6-3.5-.4-1.5-1.9-2.5-3.3-2.4-1.5,.1-2.3,1.4-2.4,1.6-.6,1-.6,2.5,.2,3.5,.9,1.2,2.6,1.5,3.9,.8Z"/>
</svg>