<?xml version="1.0" encoding="utf-8"?>
<!-- Generator: Adobe Illustrator 27.1.1, SVG Export Plug-In . SVG Version: 6.00 Build 0)  -->
<svg version="1.1" id="Lag_1" xmlns="http://www.w3.org/2000/svg" xmlns:xlink="http://www.w3.org/1999/xlink" x="0px" y="0px"
	 viewBox="0 0 401.39 281.39" style="enable-background:new 0 0 401.39 281.39;" xml:space="preserve">
<style type="text/css">
	.st0{fill:#EC9A28;}
	.st1{font-family:'BelyDisplay-Regular';}
	.st2{font-size:47.3224px;}
	.st3{fill:none;stroke:#EC9A28;stroke-width:0.5;stroke-miterlimit:10;}
	.st4{font-size:21.0932px;}
</style>
<g>
	<text transform="matrix(1.0432 0 0 1 69.9082 186.0107)" class="st0 st1 st2">Sangkraft</text>
	<line class="st3" x1="186.02" y1="195.51" x2="306.79" y2="195.51"/>
	<text transform="matrix(0.9905 0 0 1 71.4492 216.3213)" class="st0 st1 st4">Lyden af Guldborgsund</text>
	<line class="st3" x1="71.64" y1="195.51" x2="150.15" y2="195.51"/>
	<g>
		<path class="st0" d="M156.94,133.66c0,0,7.31-8.37,9.66-23.4c2.34-15.03-6.16-16.7-8.47-16.95s-10.57,1.81-10.57,11.01
			S156.94,133.66,156.94,133.66z"/>
		<path class="st0" d="M152.38,86.74c-0.83-3.07,2.35-6.63,5.67-6.26c2.37,0.27,4.61,2.53,4.38,5.24c-0.2,2.41-2.27,4.32-4.76,4.49
			C155.16,90.39,152.93,88.75,152.38,86.74z"/>
		<path class="st0" d="M127.99,141.73c0,0,7.31-8.37,9.66-23.4c2.34-15.03-6.16-16.7-8.47-16.95s-10.57,1.81-10.57,11.01
			S127.99,141.73,127.99,141.73z"/>
		<path class="st0" d="M123.43,94.81c-0.83-3.07,2.35-6.63,5.67-6.26c2.37,0.27,4.61,2.53,4.38,5.24c-0.2,2.41-2.27,4.32-4.76,4.49
			C126.22,98.46,123.98,96.82,123.43,94.81z"/>
		<path class="st0" d="M191.18,143.18c0,0,7.31-8.37,9.66-23.4c2.34-15.03-6.16-16.7-8.47-16.95s-10.57,1.81-10.57,11.01
			S191.18,143.18,191.18,143.18z"/>
		<path class="st0" d="M186.61,96.25c-0.83-3.07,2.35-6.63,5.67-6.26c2.37,0.27,4.61,2.53,4.38,5.24c-0.2,2.41-2.27,4.32-4.76,4.49
			C189.4,99.9,187.16,98.27,186.61,96.25z"/>
		<path class="st0" d="M227.52,136.29c0,0-7.31-8.37-9.66-23.4c-2.34-15.03,6.16-16.7,8.47-16.95c2.31-0.25,10.57,1.81,10.57,11.01
			S227.52,136.29,227.52,136.29z"/>
		<path class="st0" d="M232.08,89.37c0.83-3.07-2.35-6.63-5.67-6.26c-2.37,0.27-4.61,2.53-4.38,5.24c0.2,2.41,2.27,4.32,4.76,4.49
			C229.29,93.02,231.53,91.38,232.08,89.37z"/>
		<path class="st0" d="M256.46,144.36c0,0-7.31-8.37-9.66-23.4c-2.34-15.03,6.16-16.7,8.47-16.95c2.31-0.25,10.57,1.81,10.57,11.01
			S256.46,144.36,256.46,144.36z"/>
		<path class="st0" d="M261.03,97.44c0.83-3.07-2.35-6.63-5.67-6.26c-2.37,0.27-4.61,2.53-4.38,5.24c0.2,2.41,2.27,4.32,4.76,4.49
			C258.24,101.09,260.48,99.45,261.03,97.44z"/>
	</g>
</g>
</svg>
